PathFileType  4	(X/Y/Z) C:\Users\HPL 1\Documents/Temp/Sub278498/Files_W_HJCs/
DataRate	CameraRate	NumFrames	NumMarkers	Units	OrigDataRate	OrigDataStartFrame	OrigNumFrames
50.0	50.0	6	42	mm	50.0	72	571
Frame#	Time  	r_knee			r_shank(antsup)			r_ankle			r_calc			r_5meta			r_toe			L_knee			L_shank(ant_sup)			L_ankle			L_calc			L_5meta			L_toe			r_mknee			r_mankle			L_mknee			L_mankle			r_sh2			r_sh3			r_sh4			L_sh2			L_sh3			r_thigh1			r_thigh2			r_thigh3			r_thigh4			r_thigh5			L_thigh1			L_thigh2			L_thigh3			L_thigh4			r.ASIS			r.PSIS			L.ASIS			L.PSIS			C7			R_Shoulder			L_Shoulder			Sternum			R_HJC			L_HJC			R_HJC_reg			L_HJC_reg			
		X1	Y1	Z1	X2	Y2	Z2	X3	Y3	Z3	X4	Y4	Z4	X5	Y5	Z5	X6	Y6	Z6	X7	Y7	Z7	X8	Y8	Z8	X9	Y9	Z9	X10	Y10	Z10	X11	Y11	Z11	X12	Y12	Z12	X13	Y13	Z13	X14	Y14	Z14	X15	Y15	Z15	X16	Y16	Z16	X17	Y17	Z17	X18	Y18	Z18	X19	Y19	Z19	X20	Y20	Z20	X21	Y21	Z21	X22	Y22	Z22	X23	Y23	Z23	X24	Y24	Z24	X25	Y25	Z25	X26	Y26	Z26	X27	Y27	Z27	X28	Y28	Z28	X29	Y29	Z29	X30	Y30	Z30	X31	Y31	Z31	X32	Y32	Z32	X33	Y33	Z33	X34	Y34	Z34	X35	Y35	Z35	X36	Y36	Z36	X37	Y37	Z37	X38	Y38	Z38	X39	Y39	Z39	X40	Y40	Z40	X41	Y41	Z41	X42	Y42	Z42	

72	1.42000	1172.68494	925.77338	-578.94562	1261.75684	913.34418	-578.72443	1603.14258	731.05646	-592.37891	1609.38135	627.67285	-629.33105	1716.58472	807.09705	-581.57379	1691.84937	851.25317	-646.08533	769.82867	568.74481	-840.98773	801.66138	448.22659	-832.03333	700.17957	112.93117	-805.93536	622.85187	74.66973	-753.32288	814.58002	41.87842	-849.12494	862.66309	68.53243	-792.87177	1181.15466	910.38104	-705.60541	1592.61292	737.26563	-688.22876	803.16290	567.66510	-719.45380	731.26410	121.34760	-715.24713	1373.00708	868.05609	-579.40369	1236.61121	843.68402	-561.87531	1340.52502	793.47443	-557.51764	714.20068	469.55038	-852.16986	697.86298	348.48758	-842.46857	890.62701	1085.32690	-557.24200	1000.36011	1052.19934	-565.79376	1018.25537	1000.12769	-546.35651	865.29089	981.14429	-520.29510	978.38336	948.70935	-541.75574	817.66730	845.77167	-890.23004	838.71527	709.95129	-874.92871	700.95270	827.15802	-886.15625	727.31494	695.73590	-861.77405	806.64526	1156.30444	-626.30353	615.26208	1112.72852	-681.96185	790.06219	1103.14600	-873.46625	615.87347	1100.30322	-761.69183	719.09570	1615.72546	-780.77649	752.39307	1585.88904	-617.15942	771.44977	1571.97290	-959.09338	845.60431	1522.69995	-774.31573	773.92456	1052.83528	-605.81931	751.76153	1003.50371	-835.91365	759.27309	1049.61204	-645.69149	760.54002	1023.86423	-810.90865
73	1.44000	1174.93262	930.41199	-579.03607	1263.56201	916.38007	-579.36426	1605.07446	734.34460	-592.57172	1611.75232	631.12903	-629.52118	1718.32068	810.58722	-581.98590	1693.49329	854.94269	-646.40039	770.98145	568.63446	-841.49756	802.58606	447.95477	-832.34595	700.21997	112.59301	-804.54034	622.93256	74.78882	-753.22955	814.58173	41.87474	-849.12451	862.69550	68.50618	-792.91058	1182.81860	913.28088	-706.26709	1594.58813	740.59033	-688.62695	804.12671	567.52875	-719.95270	731.38690	121.35576	-715.22968	1374.82727	871.12915	-579.95966	1238.57874	846.67889	-562.48035	1342.44434	796.61694	-557.92523	715.33807	469.30771	-852.67761	698.63660	348.34363	-842.72388	891.03986	1085.81116	-557.61731	1001.14264	1053.77771	-566.37769	1019.39703	1001.73572	-546.84387	866.63977	981.49750	-520.78796	979.92090	949.91083	-542.16437	818.92120	845.70764	-891.01837	839.93909	709.95105	-875.52051	702.28516	827.19000	-887.08417	728.64594	695.80219	-862.44330	807.31885	1156.28320	-626.73523	616.02484	1112.03540	-682.24927	790.90179	1103.16089	-873.78864	616.66711	1099.66895	-762.05554	718.34735	1615.51733	-780.65546	751.76648	1585.70984	-617.03979	770.59125	1571.77283	-959.01843	845.06805	1522.81677	-774.23322	774.94894	1052.69687	-606.20544	752.91292	1003.36153	-836.31118	760.33403	1049.40078	-646.17355	761.66320	1023.80868	-811.33090
74	1.46000	1176.03198	930.22388	-579.48303	1264.34546	915.87946	-579.96588	1605.19934	732.50671	-592.53717	1611.64160	629.28821	-629.45581	1718.75635	808.43231	-581.91113	1694.14905	852.77521	-646.47125	772.45490	568.37335	-842.19696	803.84698	447.65918	-832.97571	700.40356	112.69176	-804.51178	623.00983	74.91904	-753.19611	814.58551	41.90906	-849.12830	862.75104	68.44953	-792.92737	1183.78503	913.25073	-706.73987	1594.87878	738.65039	-688.54657	805.43219	567.47015	-720.56659	731.55151	121.36358	-715.19989	1375.59216	870.26697	-580.43842	1239.10864	846.33496	-562.82819	1342.84338	795.88013	-558.23291	716.62073	469.09497	-853.40845	699.59711	348.28381	-843.21790	891.61188	1085.13013	-558.18683	1001.95300	1053.40076	-566.86096	1020.24091	1001.39447	-547.37592	867.54047	980.84009	-521.32703	980.89117	949.39832	-542.73816	820.00360	845.79132	-891.53241	841.18665	710.07159	-876.34387	703.10162	827.11847	-887.62305	729.90259	695.77997	-863.25562	807.88861	1155.84119	-626.83356	616.86237	1111.14355	-682.76276	791.89844	1103.22021	-874.09155	617.34387	1099.28369	-762.45514	717.41528	1615.31604	-780.66467	751.02557	1585.63843	-617.03674	769.54840	1571.53662	-959.10809	844.48041	1522.97156	-774.35431	775.71751	1052.08463	-606.63216	754.01811	1003.29592	-836.88639	761.68613	1048.42409	-646.73128	762.68519	1023.81598	-812.08559
75	1.48000	1175.92200	926.71985	-579.70245	1264.31177	911.93164	-579.96136	1603.73535	725.56464	-592.34100	1608.96240	622.31311	-629.21027	1718.01709	800.27081	-581.53290	1693.95435	844.92889	-645.78815	774.13446	568.18201	-843.15271	805.10016	447.29639	-833.74200	700.57050	113.04733	-805.23785	623.10706	75.08178	-753.11230	814.65912	41.93675	-849.15527	862.83838	68.39777	-792.95984	1183.92200	909.93719	-707.11780	1593.49072	731.90863	-688.24487	807.21222	567.18793	-721.55634	731.75952	121.44309	-715.26154	1375.12085	865.11511	-580.23975	1238.37598	842.43835	-563.22675	1341.63977	791.09686	-558.42242	718.02307	469.01682	-853.98029	700.94043	348.27957	-843.45099	892.56561	1083.45984	-558.56836	1002.50677	1051.08862	-567.01410	1020.69873	998.90564	-547.82874	867.86188	979.07910	-522.02985	981.11224	947.20416	-543.39044	821.40033	845.48676	-892.52802	842.82611	709.87689	-877.11218	704.80566	826.55841	-888.63586	731.36871	695.40302	-863.95728	808.45398	1155.02307	-626.96857	617.58099	1110.45911	-683.33044	793.90106	1103.38489	-874.57837	618.38495	1098.76062	-763.10205	716.32690	1615.07239	-780.71710	750.27448	1585.57263	-617.11871	768.36456	1571.46716	-959.31036	843.87866	1523.16919	-774.63916	776.42907	1051.22408	-607.09942	755.56729	1003.24371	-837.60079	762.48052	1047.83960	-647.34725	764.14784	1023.57834	-812.78394
76	1.50000	1174.70654	920.01312	-579.96075	1263.18982	904.49005	-579.72620	1600.17737	713.80035	-591.95654	1603.82190	610.77716	-629.24182	1715.61316	786.08978	-580.80536	1692.83289	831.93433	-644.63416	775.67590	567.93140	-844.10364	806.52161	446.74246	-834.31036	700.75812	113.05692	-804.64441	623.18439	75.22358	-752.98822	814.65100	41.93094	-849.13812	862.90491	68.33436	-792.98944	1183.22437	904.17938	-707.25177	1590.34692	720.60504	-687.85901	809.15753	566.90289	-722.50018	732.00262	121.50941	-715.08514	1373.34399	856.29352	-579.76990	1236.32178	835.44177	-563.28912	1338.77661	782.62537	-558.62012	719.52600	468.66394	-854.43079	701.67798	348.10632	-843.96741	893.16498	1080.31702	-559.10260	1003.02106	1047.16821	-567.13733	1020.46930	994.66559	-548.13611	867.44440	976.26740	-522.58246	980.39404	943.31891	-543.98755	821.93665	845.38495	-893.97766	844.19812	709.98212	-878.33313	705.97607	826.06006	-889.47949	733.16608	694.98877	-864.49634	809.23975	1153.83057	-627.23578	618.33673	1109.66931	-684.21393	794.68518	1103.10205	-875.13690	618.96796	1098.38611	-764.10077	715.26184	1614.83667	-780.85034	749.72168	1585.50952	-617.35779	767.09326	1571.46301	-959.56659	843.23798	1523.46021	-774.99579	776.88138	1049.93617	-607.95445	756.23203	1002.90779	-838.67104	763.39533	1046.56683	-648.07757	764.70408	1023.17297	-813.70981
77	1.52000	1173.01965	911.91730	-579.63000	1260.98389	894.09875	-579.23993	1595.05566	697.76971	-591.33936	1596.31287	594.99677	-629.20752	1711.73120	767.70587	-578.81488	1690.86011	814.79785	-642.81110	777.47888	567.54987	-845.23932	808.08337	446.20764	-835.05847	700.99976	113.03165	-804.62561	623.24243	75.35466	-752.91364	814.66241	41.91382	-849.15442	862.98285	68.26801	-793.04895	1181.83630	896.20557	-707.13593	1585.12317	704.99225	-686.51166	811.02917	566.77856	-723.37427	732.15302	121.54675	-715.03357	1370.31152	844.10101	-579.09406	1232.94067	825.14044	-564.30164	1334.17383	770.84961	-558.64032	721.08911	468.49521	-855.17957	702.90289	347.80148	-844.45282	893.74939	1076.44519	-559.69922	1003.03387	1041.55359	-567.36804	1019.79541	988.92035	-548.49512	865.85742	972.56836	-524.49512	978.81555	938.21539	-544.57086	823.26550	844.96136	-894.93433	845.80487	709.62842	-879.48309	707.02197	825.65601	-889.96960	734.82019	694.47040	-865.13141	810.16217	1152.43469	-627.48859	619.19092	1109.03040	-685.34583	795.78937	1102.70178	-875.72345	619.90356	1098.03564	-765.19055	714.17157	1614.64685	-781.11169	749.33832	1585.46289	-617.59351	765.91205	1571.46057	-959.89557	842.71869	1523.77002	-775.46552	777.34042	1048.52230	-608.83539	757.08468	1002.48306	-839.78626	764.00390	1045.40671	-648.79808	765.48362	1022.57730	-814.58686
